HIERARCHY
ROOT joint_Root
{
	OFFSET 0.0 0.0 0.0
	CHANNELS 6 Xposition Yposition Zposition Zrotation Xrotation Yrotation 
	JOINT Hips
	{
		OFFSET 4.5925 91.4895 -427.239
		CHANNELS 6 Xposition Yposition Zposition Zrotation Xrotation Yrotation 
		JOINT Spine
		{
			OFFSET 15.7357 0.0 0.0
			CHANNELS 6 Xposition Yposition Zposition Zrotation Xrotation Yrotation 
			JOINT Chest
			{
				OFFSET 8.98455 -0.406207 0.0
				CHANNELS 6 Xposition Yposition Zposition Zrotation Xrotation Yrotation 
				JOINT Neck
				{
					OFFSET 16.3773 0.0 0.0
					CHANNELS 6 Xposition Yposition Zposition Zrotation Xrotation Yrotation 
					JOINT Head
					{
						OFFSET 6.45672 0.0 0.0
						CHANNELS 6 Xposition Yposition Zposition Zrotation Xrotation Yrotation 
						End Site
						{
							OFFSET 0.0 0.0 0.0
						}
					}
				}
				JOINT Shoulder_L
				{
					OFFSET 12.9942 -0.242716 4.98039
					CHANNELS 6 Xposition Yposition Zposition Zrotation Xrotation Yrotation 
					JOINT UpperArm_L
					{
						OFFSET 5.34809 0.0 0.0
						CHANNELS 6 Xposition Yposition Zposition Zrotation Xrotation Yrotation 
						JOINT LowerArm_L
						{
							OFFSET 24.3286 1.87007e-05 0.0
							CHANNELS 6 Xposition Yposition Zposition Zrotation Xrotation Yrotation 
							JOINT Hand_L
							{
								OFFSET 22.2916 0.0 0.0
								CHANNELS 6 Xposition Yposition Zposition Zrotation Xrotation Yrotation 
								End Site
								{
									OFFSET 0.0 0.0 0.0
								}
							}
						}
					}
				}
				JOINT Shoulder_R
				{
					OFFSET 12.9945 -0.242716 -4.98039
					CHANNELS 6 Xposition Yposition Zposition Zrotation Xrotation Yrotation 
					JOINT UpperArm_R
					{
						OFFSET -5.34813 0.0 0.0
						CHANNELS 6 Xposition Yposition Zposition Zrotation Xrotation Yrotation 
						JOINT LowerArm_R
						{
							OFFSET -24.3289 0.000322201 0.0
							CHANNELS 6 Xposition Yposition Zposition Zrotation Xrotation Yrotation 
							JOINT Hand_R
							{
								OFFSET -22.2915 -0.000108084 0.0
								CHANNELS 6 Xposition Yposition Zposition Zrotation Xrotation Yrotation 
								End Site
								{
									OFFSET 0.0 0.0 0.0
								}
							}
						}
					}
				}
			}
		}
		JOINT UpperLeg_L
		{
			OFFSET -2.19248 -6.46944 0.0
			CHANNELS 6 Xposition Yposition Zposition Zrotation Xrotation Yrotation 
			JOINT LowerLeg_L
			{
				OFFSET 39.0811 0.0 -1.23785e-05
				CHANNELS 6 Xposition Yposition Zposition Zrotation Xrotation Yrotation 
				JOINT Foot_L
				{
					OFFSET 40.9854 0.0 -1.26872e-05
					CHANNELS 6 Xposition Yposition Zposition Zrotation Xrotation Yrotation 
					JOINT Toes_L
					{
						OFFSET 11.7543 0.0 0.0
						CHANNELS 6 Xposition Yposition Zposition Zrotation Xrotation Yrotation 
						End Site
						{
							OFFSET 0.0 0.0 0.0
						}
					}
				}
			}
		}
		JOINT UpperLeg_R
		{
			OFFSET -2.19251 6.46944 0.0
			CHANNELS 6 Xposition Yposition Zposition Zrotation Xrotation Yrotation 
			JOINT LowerLeg_R
			{
				OFFSET -39.0811 -0.00228153 -0.0401928
				CHANNELS 6 Xposition Yposition Zposition Zrotation Xrotation Yrotation 
				JOINT Foot_R
				{
					OFFSET -40.9854 0.0 0.0
					CHANNELS 6 Xposition Yposition Zposition Zrotation Xrotation Yrotation 
					JOINT Toes_R
					{
						OFFSET -11.7543 0.0 0.0
						CHANNELS 6 Xposition Yposition Zposition Zrotation Xrotation Yrotation 
						End Site
						{
							OFFSET 0.0 0.0 0.0
						}
					}
				}
			}
		}
	}
}
MOTION
Frames:	4
Frame Time:	0.0333333
0.000000 0.000000 0.000000 0.000000 0.000000 -0.000000 79.710500 90.553300 193.738000 -87.350000 58.780400 177.928000 15.735700 0.000005 -0.000001 98.045800 80.925900 -98.876400 8.984550 -0.406207 -0.000000 10.229500 2.505650 -1.884660 16.377300 -0.000001 -0.000001 3.311850 6.301230 -1.207740 6.456720 -0.000001 -0.000000 -0.965454 9.039670 -3.005640 12.994200 -0.242716 4.980390 -91.369000 4.158530 -71.760800 5.348090 -0.000007 -0.000001 -71.234600 20.400000 -5.286590 24.328600 0.000019 0.000005 9.775640 25.552100 -21.773700 22.291600 -0.000001 0.000005 14.373500 5.149830 3.947140 12.994500 -0.242716 -4.980390 88.791500 8.687010 -82.048800 -5.348130 -0.000001 -0.000004 -54.559500 28.097300 -19.657300 -24.328900 0.000322 -0.000009 2.051830 3.098960 -33.546900 -22.291500 -0.000108 -0.000004 17.143200 5.390330 -2.625690 -2.192480 -6.469440 -0.000000 173.842000 -21.699300 -25.599500 39.081100 -0.000007 -0.000012 0.098176 -0.220514 23.999300 40.985400 -0.000006 -0.000013 7.883070 1.242250 -53.051400 11.754300 -0.000000 0.000003 -0.000678 -0.010729 -17.013300 -2.192510 6.469440 -0.000001 179.568000 35.919200 172.983000 -39.081100 -0.002282 -0.040193 0.006589 -0.005636 30.253000 -40.985400 0.000008 0.000006 6.010410 4.234540 -73.096400 -11.754300 -0.000006 -0.000006 -0.106221 -0.127393 -16.494800
0.000000 0.000000 0.000000 0.000000 0.000000 -0.000000 81.313200 90.244900 193.105000 -87.591800 57.957800 177.661000 15.735700 0.000005 -0.000001 98.689700 81.014300 -99.738200 8.984550 -0.406207 -0.000000 10.032600 2.677310 -2.330830 16.377300 -0.000001 -0.000001 3.203940 6.316500 -1.050700 6.456720 -0.000001 -0.000000 -1.020370 8.950730 -2.710450 12.994200 -0.242716 4.980390 -91.345900 4.104310 -71.826400 5.348090 -0.000007 -0.000001 -71.215600 20.178400 -5.040990 24.328600 0.000019 0.000005 9.617950 25.431900 -21.534500 22.291600 -0.000001 0.000005 14.411300 5.143480 4.098590 12.994500 -0.242716 -4.980390 88.798500 8.731410 -82.133800 -5.348130 -0.000001 -0.000004 -54.405800 27.941300 -19.711100 -24.328900 0.000322 -0.000009 2.094100 3.136720 -33.766200 -22.291500 -0.000108 -0.000004 17.162900 5.393650 -2.732450 -2.192480 -6.469440 -0.000000 173.444000 -21.147100 -26.771900 39.081100 -0.000007 -0.000012 0.017088 -0.036805 24.904700 40.985400 -0.000006 -0.000013 7.992160 -1.761920 -51.628600 11.754300 -0.000000 0.000003 -0.000000 -0.000005 -16.577700 -2.192510 6.469440 -0.000001 179.303000 36.082900 173.497000 -39.081100 -0.002282 -0.040193 0.034320 -0.051597 31.014600 -40.985400 0.000008 0.000006 5.815790 3.417730 -74.324800 -11.754300 -0.000006 -0.000006 -0.366050 -0.447708 -16.597800
0.000000 0.000000 0.000000 0.000000 0.000000 -0.000000 83.233300 89.855600 192.266000 -87.413300 57.585900 177.464000 15.735700 0.000005 -0.000001 99.394400 81.014900 -100.687000 8.984550 -0.406207 -0.000000 10.006600 2.889590 -2.836410 16.377300 -0.000001 -0.000001 3.169990 6.376630 -0.881157 6.456720 -0.000001 -0.000000 -1.007220 8.942390 -2.380240 12.994200 -0.242716 4.980390 -91.331900 4.044050 -71.754000 5.348090 -0.000007 -0.000001 -70.990700 19.913000 -4.922930 24.328600 0.000019 0.000005 9.672020 25.445200 -21.636900 22.291600 -0.000001 0.000005 14.162800 5.141350 4.149560 12.994500 -0.242716 -4.980390 88.790200 8.854240 -82.188000 -5.348130 -0.000001 -0.000004 -54.606400 28.006200 -19.504700 -24.328900 0.000322 -0.000009 2.292890 3.407110 -33.981900 -22.291500 -0.000108 -0.000004 17.244900 5.397760 -2.864910 -2.192480 -6.469440 -0.000000 174.809000 -18.890300 -27.691900 39.081100 -0.000007 -0.000012 -0.037986 0.065870 29.971700 40.985400 -0.000006 -0.000013 6.649540 -3.923540 -55.076200 11.754300 -0.000000 0.000003 -0.000003 -0.000041 -16.579100 -2.192510 6.469440 -0.000001 178.699000 35.791900 174.676000 -39.081100 -0.002282 -0.040193 0.036095 -0.052383 32.050900 -40.985400 0.000008 0.000006 5.137300 2.856440 -75.260300 -11.754300 -0.000006 -0.000006 -0.843125 -1.038490 -17.099300
0.000000 0.000000 0.000000 0.000000 0.000000 -0.000000 85.215900 89.581700 191.320000 -87.367400 57.115200 177.460000 15.735700 0.000005 -0.000001 99.445700 81.007800 -101.080000 8.984550 -0.406207 -0.000000 10.027800 2.900640 -3.521910 16.377300 -0.000001 -0.000001 3.114910 6.489550 -0.844130 6.456720 -0.000001 -0.000000 -0.897427 8.966950 -1.963060 12.994200 -0.242716 4.980390 -91.362000 4.120630 -71.691200 5.348090 -0.000007 -0.000001 -70.191200 20.056600 -5.291270 24.328600 0.000019 0.000005 9.538460 24.938800 -21.727800 22.291600 -0.000001 0.000005 14.304000 5.143030 4.109360 12.994500 -0.242716 -4.980390 88.737700 9.225090 -82.173700 -5.348130 -0.000001 -0.000004 -55.249700 28.023300 -18.974400 -24.328900 0.000322 -0.000009 2.461650 3.642240 -34.099300 -22.291500 -0.000108 -0.000004 17.491700 5.402080 -3.005200 -2.192480 -6.469440 -0.000000 176.003000 -16.746100 -27.733100 39.081100 -0.000007 -0.000012 -0.090064 0.135959 33.522200 40.985400 -0.000006 -0.000013 5.259830 -5.611360 -57.988100 11.754300 -0.000000 0.000003 -0.000043 -0.000500 -16.597000 -2.192510 6.469440 -0.000001 178.013000 35.087800 175.534000 -39.081100 -0.002282 -0.040193 0.034853 -0.047533 33.582100 -40.985400 0.000008 0.000006 4.316590 2.096950 -74.702100 -11.754300 -0.000006 -0.000006 -1.865970 -2.248640 -18.865500
